<svg width="45" height="52" viewBox="0 0 45 52" fill="none" xmlns="http://www.w3.org/2000/svg">
<g clip-path="url(#clip0)">
<path d="M19.135 6.71983L21.365 4.48992C22.3092 3.54572 23.8359 3.54572 24.7701 4.48992L44.2969 24.0067C45.2411 24.9509 45.2411 26.4776 44.2969 27.4118L24.7701 46.9386C23.8259 47.8828 22.2991 47.8828 21.365 46.9386L19.135 44.7087C18.1808 43.7544 18.2009 42.1975 19.1752 41.2634L31.279 29.7321H2.41071C1.07478 29.7321 0 28.6573 0 27.3214V24.1071C0 22.7712 1.07478 21.6964 2.41071 21.6964H31.279L19.1752 10.1651C18.1908 9.23099 18.1708 7.67407 19.135 6.71983Z" fill="white"/>
</g>
<defs>
<clipPath id="clip0">
<rect width="45" height="51.4286" fill="white"/>
</clipPath>
</defs>
</svg>
