<svg width="75" height="56" viewBox="0 0 75 56" fill="none" xmlns="http://www.w3.org/2000/svg">
<path d="M50.6469 6.86994L52.661 42.8877L51.1962 42.8479C46.3622 42.7287 41.6381 44.1186 37.4999 46.8984C33.3617 44.1186 28.6377 42.8479 23.8035 42.8479C17.7244 42.8479 12.8538 44.3967 7.32415 46.8588L11.499 9.49074C15.3075 7.78313 19.7021 6.86994 23.8036 6.86994C29.2969 6.86994 33.6547 8.77604 37.5 13.025C41.1988 8.9349 45.3734 6.989 50.6469 6.86994ZM75 55.5556C71.5944 55.5556 68.6646 54.8011 65.5884 53.2921C61.0108 51.0286 56.25 49.6784 51.1964 49.6784C45.9961 49.6784 41.1988 51.5448 37.5 55.5556C33.8012 51.5447 29.0039 49.6784 23.8036 49.6784C18.75 49.6784 13.9892 51.0286 9.41162 53.2921C6.44532 54.7216 3.44234 55.5556 0.183184 55.5556H0L5.6763 5.04326C10.9131 1.82668 17.2852 0 23.3276 0C28.2714 0 33.3619 1.11183 37.5 4.20935C41.6381 1.11183 46.7286 0 51.6724 0C57.7148 0 64.0869 1.82668 69.3237 5.04326L75 55.5556ZM69.2139 49.0826L64.6729 8.53776C60.5713 6.51244 55.7007 5.44025 51.1964 5.44025C46.0694 5.44025 41.272 7.1875 37.5 11.0395C33.728 7.1875 28.9308 5.44025 23.8036 5.44025C19.2993 5.44025 14.4287 6.51244 10.3271 8.53776L5.7861 49.0826C12.0849 46.2633 16.8457 44.238 23.8036 44.238C28.8207 44.238 33.2519 45.6277 37.5 48.5268C41.7481 45.6277 46.1792 44.238 51.1964 44.238C58.1543 44.238 62.9151 46.2633 69.2139 49.0826Z" fill="url(#paint0_linear)"/>
<defs>
<linearGradient id="paint0_linear" x1="-10.1465" y1="27.4074" x2="75.1561" y2="27.4074" gradientUnits="userSpaceOnUse">
<stop stop-color="#02C6D6"/>
<stop offset="1" stop-color="#037FD5"/>
</linearGradient>
</defs>
</svg>
