<svg width="75" height="46" viewBox="0 0 75 46" fill="none" xmlns="http://www.w3.org/2000/svg">
<path d="M50.9414 0H40.875C39.9375 0 39.0352 0.351563 38.3438 0.984375L26.8242 11.5312C26.8125 11.543 26.8008 11.5664 26.7891 11.5781C24.8438 13.4062 24.8789 16.3242 26.543 18.1406C28.0312 19.7695 31.1602 20.2031 33.1172 18.457C33.1289 18.4453 33.1523 18.4453 33.1641 18.4336L42.5273 9.85547C43.2891 9.16406 44.4844 9.21094 45.1758 9.97266C45.8789 10.7344 45.8203 11.918 45.0586 12.6211L42 15.4219L59.0625 29.2734C59.4023 29.5547 59.707 29.8594 59.9883 30.1758V7.5L53.5898 1.10156C52.8984 0.398438 51.9375 0 50.9414 0ZM63.75 7.52344V33.7617C63.75 35.8359 65.4258 37.5117 67.5 37.5117H75V7.52344H63.75ZM69.375 33.7617C68.3438 33.7617 67.5 32.918 67.5 31.8867C67.5 30.8555 68.3438 30.0117 69.375 30.0117C70.4062 30.0117 71.25 30.8555 71.25 31.8867C71.25 32.918 70.4062 33.7617 69.375 33.7617ZM0 37.5H7.5C9.57422 37.5 11.25 35.8242 11.25 33.75V7.52344H0V37.5ZM5.625 30.0117C6.65625 30.0117 7.5 30.8555 7.5 31.8867C7.5 32.918 6.65625 33.7617 5.625 33.7617C4.59375 33.7617 3.75 32.918 3.75 31.8867C3.75 30.8438 4.59375 30.0117 5.625 30.0117ZM56.707 32.1914L39.2109 17.9883L35.6953 21.2109C32.2148 24.3867 26.8828 24.082 23.7773 20.6953C20.625 17.25 20.8711 11.918 24.293 8.77734L33.8789 0H24.0586C23.0625 0 22.1133 0.398438 21.4102 1.10156L15 7.5V33.7383H17.1445L27.75 43.3359C30.9609 45.9492 35.6836 45.457 38.2969 42.2461L38.3203 42.2227L40.418 44.0391C42.2812 45.5625 45.0352 45.2695 46.5469 43.4062L50.2266 38.8828L50.8594 39.3984C52.4648 40.6992 54.832 40.4648 56.1328 38.8477L57.2461 37.4766C58.5586 35.8594 58.3125 33.5039 56.707 32.1914Z" fill="url(#paint0_linear)"/>
<defs>
<linearGradient id="paint0_linear" x1="1.64063" y1="22.5" x2="79.5703" y2="22.5" gradientUnits="userSpaceOnUse">
<stop stop-color="#02C6D6"/>
<stop offset="1" stop-color="#037FD5"/>
</linearGradient>
</defs>
</svg>
