<?xml version="1.0" encoding="UTF-8" standalone="no"?>
<!-- Created with Inkscape (http://www.inkscape.org/) -->
<svg
   xmlns:dc="http://purl.org/dc/elements/1.1/"
   xmlns:cc="http://creativecommons.org/ns#"
   xmlns:rdf="http://www.w3.org/1999/02/22-rdf-syntax-ns#"
   xmlns:svg="http://www.w3.org/2000/svg"
   xmlns="http://www.w3.org/2000/svg"
   xmlns:sodipodi="http://sodipodi.sourceforge.net/DTD/sodipodi-0.dtd"
   xmlns:inkscape="http://www.inkscape.org/namespaces/inkscape"
   width="299.84"
   height="290.26999"
   id="svg13284"
   sodipodi:version="0.32"
   inkscape:version="0.46"
   version="1.0"
   sodipodi:docname="Indian_world_contour.svg"
   inkscape:output_extension="org.inkscape.output.svg.inkscape">
  <defs
     id="defs13286" />
  <sodipodi:namedview
     id="base"
     pagecolor="#ffffff"
     bordercolor="#666666"
     borderopacity="1.0"
     gridtolerance="10000"
     guidetolerance="10"
     objecttolerance="10"
     inkscape:pageopacity="0.0"
     inkscape:pageshadow="2"
     inkscape:zoom="1.8913426"
     inkscape:cx="148.86255"
     inkscape:cy="145.13499"
     inkscape:document-units="px"
     inkscape:current-layer="layer1"
     showgrid="false"
     inkscape:window-width="1280"
     inkscape:window-height="752"
     inkscape:window-x="0"
     inkscape:window-y="22" />
  <metadata
     id="metadata13289">
    <rdf:RDF>
      <cc:Work
         rdf:about="">
        <dc:format>image/svg+xml</dc:format>
        <dc:type
           rdf:resource="http://purl.org/dc/dcmitype/StillImage" />
        <cc:license
           rdf:resource="http://creativecommons.org/licenses/publicdomain/" />
        <dc:title>Indian world contour</dc:title>
        <dc:date>2008-11-26</dc:date>
        <dc:creator>
          <cc:Agent>
            <dc:title>http://commons.wikimedia.org/wiki/User:Tryphon</dc:title>
          </cc:Agent>
        </dc:creator>
        <dc:source>http://commons.wikimedia.org/wiki/Image:BlankMap-FlatWorld6.svg</dc:source>
        <dc:description>A simple contour map showing the Indian region of the world.</dc:description>
        <dc:contributor>
          <cc:Agent>
            <dc:title>Frank Bennett</dc:title>
          </cc:Agent>
        </dc:contributor>
        <dc:subject>
          <rdf:Bag>
            <rdf:li>India</rdf:li>
          </rdf:Bag>
        </dc:subject>
      </cc:Work>
      <cc:License
         rdf:about="http://creativecommons.org/licenses/publicdomain/">
        <cc:permits
           rdf:resource="http://creativecommons.org/ns#Reproduction" />
        <cc:permits
           rdf:resource="http://creativecommons.org/ns#Distribution" />
        <cc:permits
           rdf:resource="http://creativecommons.org/ns#DerivativeWorks" />
      </cc:License>
    </rdf:RDF>
  </metadata>
  <g
     inkscape:label="Layer 1"
     inkscape:groupmode="layer"
     id="layer1"
     transform="translate(-235.08059,-397.22615)">
    <path
       class="land pk"
       d="M 245.5812,469.79425 C 248.77839,470.50925 251.56059,472.06925 254.64878,473.00125 C 258.32348,474.11134 261.60498,472.96525 265.45807,472.89235 C 266.82777,472.86625 267.89177,473.39735 269.18367,473.58325 C 270.51086,473.77435 271.60816,472.84725 272.87016,472.43035 C 274.53446,471.88035 275.90456,472.50235 277.48605,472.42425 C 278.81995,472.35925 280.17905,471.70825 281.51325,471.42335 C 283.06265,471.09225 286.00484,470.85335 287.18284,469.50735 C 287.88714,468.70435 286.61294,468.26825 286.90454,467.49035 C 287.61204,465.60026 286.96244,464.07536 287.46534,462.23426 C 287.97694,460.36836 288.28524,460.78936 289.62434,459.68536 C 290.44874,459.00736 290.81914,457.87627 291.83944,457.40727 C 292.90583,456.91637 293.06763,457.91027 293.99933,458.01537 C 295.58623,458.19537 297.10323,457.70237 298.64653,456.97927 C 298.16453,456.39627 297.11383,456.35927 297.02663,455.46727 C 298.42343,455.44327 300.01093,454.60837 300.94602,453.52027 C 302.05312,452.23427 303.85482,454.42137 304.20952,452.80337 C 305.16552,453.26937 305.63852,453.04927 306.08972,454.08327 C 306.46952,454.95627 307.36272,454.65827 308.19351,454.13037 C 310.41931,452.71527 310.40081,450.10428 309.95201,448.23638 C 309.66401,447.03728 310.68681,446.85028 311.14411,445.81828 C 311.50051,445.01238 311.75051,443.78728 311.59131,442.99929 C 311.40011,442.06239 312.47231,441.89829 313.19741,441.75039 C 314.39861,441.50429 314.94031,441.87429 316.1442,441.07129 C 317.6118,440.09329 317.5853,440.04339 317.2804,438.83439 C 317.0248,437.82439 316.6071,436.71329 315.7139,436.11339 C 313.96231,434.9354 313.96731,433.2434 316.5909,433.9544 C 318.3774,434.4384 322.8101,435.0124 323.79279,432.4843 C 324.08419,431.7384 324.18329,431.1793 323.67829,430.6743 C 323.46489,430.4583 322.4486,429.7343 322.7782,429.2884 C 323.0269,429.0914 323.30209,429.0093 323.60139,429.0423 C 323.41039,428.3263 324.15929,427.77641 324.69389,427.27531 C 325.18779,426.81341 326.80049,425.75741 326.93249,425.19041 C 327.06519,424.65241 327.35999,424.17431 327.81679,423.75741 C 328.17989,423.38831 327.30209,423.01441 327.22849,422.77831 C 327.17789,422.51631 327.29529,422.32241 327.58349,422.19741 C 328.10919,421.77331 327.57709,420.91441 327.54739,420.51631 C 327.50589,419.98642 326.82699,418.72842 326.54569,418.27132 C 326.14229,417.61432 325.33749,417.17232 324.78929,416.62742 C 324.04479,415.88742 327.53009,412.72142 328.35969,412.98142 C 329.50029,413.33832 329.88369,412.08533 330.76959,411.39833 C 331.70808,410.67143 332.82858,410.20443 333.94278,409.89943 C 336.33728,409.24433 338.71527,409.23843 341.04157,409.15443 C 342.22027,409.11233 344.00207,408.54233 344.94267,409.04733 C 345.86607,409.54233 345.87207,409.81833 347.03396,409.14043 C 348.62716,408.21033 352.38616,406.66143 352.74076,408.81043 C 354.13455,407.21333 356.23945,408.52533 356.69245,409.60933 C 357.11005,410.61143 359.18765,410.06433 360.04975,411.04233 C 360.67225,411.73643 360.99435,412.52532 361.02455,413.50832 C 361.04805,414.22142 360.66975,415.44432 360.81295,416.05632 C 360.96745,416.72442 362.37254,417.63242 362.85304,418.14632 C 363.47154,418.80932 364.80504,417.69942 365.58074,417.52242 C 364.94614,420.63131 372.52573,421.94831 375.12803,420.97841 C 374.22733,421.59141 369.12754,423.70941 369.23934,424.86231 C 369.28294,425.31741 368.55844,426.30541 368.03904,425.91641 C 367.41834,425.45331 366.97444,426.65141 366.64554,427.16441 C 366.29994,427.70631 361.57745,428.3863 360.58645,428.8054 C 357.80085,429.9864 356.27785,429.0154 353.68466,428.4823 C 351.58916,428.0514 348.95226,426.69631 346.51546,427.9384 C 344.85787,428.7833 343.55457,430.7593 345.23627,431.4893 C 346.78546,432.1573 344.24457,433.2423 345.55197,433.6614 C 345.98337,433.7993 349.05886,433.8174 347.63286,434.9424 C 346.34116,435.96329 344.89587,436.37129 346.58646,437.67229 C 347.99826,438.76239 345.81447,440.22839 346.67436,441.32129 C 347.16626,441.94739 347.78686,442.26039 348.39296,442.76329 C 348.67356,442.96239 348.80476,443.24128 348.78866,443.60028 C 348.67186,444.61228 348.93166,444.38328 350.01576,444.61838 C 351.86926,445.01828 350.76736,447.00428 352.80086,447.39738 C 353.90636,447.61138 355.80125,447.70038 356.43425,448.61728 C 357.21195,449.74538 353.79906,450.84638 353.09926,451.13037 C 351.31536,451.85527 349.36246,453.12427 350.50786,454.87127 C 351.26156,456.02237 349.08826,459.09726 351.35406,459.14036 C 350.84206,459.93836 348.67636,460.45126 348.26516,461.44426 C 347.69576,462.82036 344.49827,464.66926 345.53047,465.83636 C 347.01266,467.51735 342.89777,468.27935 341.94847,468.81925 C 341.01027,469.35225 340.95027,470.67725 340.65107,471.49925 C 340.14377,472.89435 339.47567,474.33024 338.61977,475.60224 C 337.34628,477.49424 335.24768,477.89124 333.63858,479.34224 C 332.99058,479.92634 332.68028,480.67934 332.48848,481.45034 C 332.14918,482.81123 330.81049,483.60233 330.12199,484.80323 C 328.65879,487.35423 327.20859,486.71223 324.59609,487.36023 C 323.70619,487.58123 322.6075,488.43123 321.6992,488.34433 C 320.6083,488.24023 320.3037,486.94833 319.8685,486.20223 C 318.8437,484.45433 316.5164,487.10733 315.8483,488.20033 C 314.66551,490.13822 312.96151,491.80032 311.86691,493.70522 C 310.52001,496.05132 311.70651,497.36331 313.95611,497.92631 C 316.0536,498.45031 317.1029,498.55931 316.6205,501.11731 C 316.3461,502.57931 315.7064,505.8502 318.2872,505.8773 C 319.0305,505.8852 319.9477,505.3592 320.5427,505.9412 C 321.1338,506.5192 320.433,508.0933 320.9243,508.9023 C 321.931,510.5653 323.1107,511.8093 323.44379,513.86019 C 323.57149,514.64629 324.05979,514.41129 323.21229,514.95929 C 322.5364,515.39629 323.40519,516.85229 323.92249,516.95619 C 322.4147,517.98329 320.8134,519.26919 319.8438,517.34619 C 319.3927,516.45219 318.4826,517.12129 317.76,517.39129 C 317.4016,517.48619 317.0464,517.59929 316.6957,517.72829 C 316.1057,518.00819 316.3848,518.68619 315.7551,518.93619 C 313.67741,519.75629 311.64671,517.88729 309.54901,517.99829 C 308.42791,518.05819 306.92642,518.24919 305.94322,517.74829 C 305.92082,518.54529 306.41362,520.77228 304.93242,520.77228 C 303.67692,520.77228 301.76102,520.80218 301.68822,522.50018 C 301.70142,521.51628 301.57602,521.54028 301.31202,522.57218 C 300.86072,522.15418 300.59062,521.58018 300.28132,521.06028 C 300.50182,521.51228 300.52672,521.99328 300.35632,522.49918 C 299.84583,522.17218 299.41793,521.76418 299.07063,521.27528 C 299.27883,522.59328 298.28153,521.85018 297.42433,522.28318 C 297.46153,521.89918 297.49883,521.51418 297.53593,521.13128 C 296.57563,521.76018 295.54223,520.57218 296.62683,519.98019 C 295.39833,520.20118 293.87813,518.49019 295.25043,517.53219 C 293.92473,516.74519 294.91713,514.47729 293.81203,513.91029 C 293.19233,513.59429 289.90514,513.45619 290.10514,512.43029 C 290.50554,510.3542 290.08314,509.7413 289.19414,508.0993 C 288.53164,506.8813 286.30134,505.6283 285.67384,507.8122 C 286.95404,507.7492 287.91524,506.6492 288.43124,508.3162 C 287.15904,507.4643 285.58074,507.9892 284.13815,508.4182 C 282.63425,508.8652 281.28705,508.3713 279.86175,508.7763 C 279.08775,508.9963 273.84776,508.9263 275.05286,510.3322 C 274.42336,510.5102 274.05216,510.2292 274.08546,509.6123 C 271.95696,510.6323 270.63486,507.6832 269.48606,508.1722 C 269.63116,508.4142 269.77846,508.6542 269.92986,508.8932 C 268.88657,509.0962 264.82557,507.7892 265.65897,510.1893 C 264.64347,509.6622 256.68968,509.0852 257.20658,511.0522 C 256.66988,511.0303 256.32458,510.2692 255.91038,510.0273 C 255.19418,509.6083 255.09678,510.5962 254.60928,510.8592 C 252.65039,511.9132 251.40349,510.7162 251.61579,509.1173 C 251.90179,506.9622 252.10389,499.17131 256.31868,500.10921 C 255.36218,496.89532 262.82707,498.63631 263.37227,496.87232 C 263.63927,496.10232 264.32777,493.16932 264.02407,492.90922 C 263.29347,492.28322 262.15487,492.73732 261.24108,492.68032 C 259.93068,492.59932 260.40988,490.49232 260.49338,489.62832 C 260.65378,487.96523 260.39698,485.82833 260.06768,484.23733 C 259.91508,483.50133 258.57728,483.45523 257.95818,483.05323 C 256.92998,482.38823 255.83558,481.98623 254.72228,481.45724 C 252.25109,480.28524 251.39459,478.57124 250.36669,476.23224 C 249.28419,473.75125 247.32239,471.77735 245.5812,469.79425"
       id="pk"
       style="fill:#ffa500;stroke:#ffffff;stroke-width:1;stroke-miterlimit:4;stroke-dasharray:none;stroke-opacity:1" />
    <g
       transform="matrix(0.9999987,0,0,0.9999987,-1490.0592,-31.394596)"
       class="land bd"
       id="bd"
       style="fill:#ffa500;stroke:#ffffff;stroke-width:1.00000131;stroke-miterlimit:4;stroke-dasharray:none;stroke-opacity:1">
      <path
         d="M 1962.3193,557.4215 C 1962.1033,557.3975 1961.8883,557.3735 1961.6723,557.3495 C 1962.0269,557.6435 1962.4404,557.8355 1962.9159,557.9255 C 1962.7163,557.7575 1962.5178,557.5895 1962.3193,557.4215"
         id="path3240"
         style="fill:#ffa500;stroke:#ffffff;stroke-width:1.00000131;stroke-miterlimit:4;stroke-dasharray:none;stroke-opacity:1" />
      <path
         d="M 1961.9713,562.1735 C 1961.9382,562.6215 1962.0878,562.9825 1962.4184,563.2535 C 1962.3913,562.6985 1963.4981,562.2425 1963.4983,562.3165 C 1963.5061,561.3475 1962.4957,561.6875 1961.9713,562.1735"
         id="path3242"
         style="fill:#ffa500;stroke:#ffffff;stroke-width:1.00000131;stroke-miterlimit:4;stroke-dasharray:none;stroke-opacity:1" />
      <path
         d="M 1962.9567,560.8775 C 1963.1348,561.0215 1963.3138,561.1655 1963.4918,561.3095 C 1963.3695,561.1025 1963.1914,560.9585 1962.9567,560.8775"
         id="path3244"
         style="fill:#ffa500;stroke:#ffffff;stroke-width:1.00000131;stroke-miterlimit:4;stroke-dasharray:none;stroke-opacity:1" />
      <path
         d="M 1962.6673,563.6135 C 1962.867,564.3725 1963.5224,564.8565 1963.6517,565.6585 C 1963.7116,566.2025 1963.6526,566.7495 1963.4724,567.2995 C 1963.3544,567.7235 1962.3669,569.8985 1963.6361,568.3655 C 1963.386,568.6415 1963.3308,568.9045 1963.4715,569.1545 C 1964.5675,569.6605 1965.1984,565.9405 1965.1327,565.4845 C 1964.9992,564.5655 1963.5731,563.7465 1963.6652,562.9105 C 1963.7514,562.1265 1962.603,562.8055 1962.6673,563.6135"
         id="path3246"
         style="fill:#ffa500;stroke:#ffffff;stroke-width:1.00000131;stroke-miterlimit:4;stroke-dasharray:none;stroke-opacity:1" />
      <path
         d="M 1962.2487,568.7975 C 1962.404,569.0835 1962.8355,568.3975 1962.4061,569.3015 C 1962.7903,568.9105 1962.9206,568.4785 1962.7958,568.0055 C 1962.6127,568.2695 1962.4317,568.5335 1962.2487,568.7975"
         id="path3248"
         style="fill:#ffa500;stroke:#ffffff;stroke-width:1.00000131;stroke-miterlimit:4;stroke-dasharray:none;stroke-opacity:1" />
      <path
         d="M 1963.3437,565.6295 C 1963.2607,565.9545 1963.2692,566.2675 1963.3688,566.5655 C 1963.4812,566.2355 1963.4735,565.9235 1963.3437,565.6295"
         id="path3250"
         style="fill:#ffa500;stroke:#ffffff;stroke-width:1.00000131;stroke-miterlimit:4;stroke-dasharray:none;stroke-opacity:1" />
      <path
         d="M 1966.2646,568.5095 C 1968.1033,567.6445 1967.2196,565.8845 1966.6321,564.7655 C 1966.7848,565.9755 1966.5823,567.2775 1966.2646,568.5095"
         id="path3252"
         style="fill:#ffa500;stroke:#ffffff;stroke-width:1.00000131;stroke-miterlimit:4;stroke-dasharray:none;stroke-opacity:1" />
      <path
         d="M 1970.0348,566.2055 C 1970.8718,565.4735 1969.8574,564.3925 1969.3891,563.9735 C 1969.0322,564.8525 1969.3945,565.6925 1970.0348,566.2055"
         id="path3254"
         style="fill:#ffa500;stroke:#ffffff;stroke-width:1.00000131;stroke-miterlimit:4;stroke-dasharray:none;stroke-opacity:1" />
      <path
         d="M 1972.7591,569.9495 C 1972.509,570.4435 1972.4159,570.9475 1972.4787,571.4615 C 1972.6905,570.9635 1972.7836,570.4595 1972.7591,569.9495"
         id="path3256"
         style="fill:#ffa500;stroke:#ffffff;stroke-width:1.00000131;stroke-miterlimit:4;stroke-dasharray:none;stroke-opacity:1" />
      <path
         d="M 1972.824,573.7655 C 1974.1118,573.3195 1973.4125,571.8285 1972.6106,571.5345 C 1972.6761,572.2795 1972.6604,573.0435 1972.824,573.7655"
         id="path3258"
         style="fill:#ffa500;stroke:#ffffff;stroke-width:1.00000131;stroke-miterlimit:4;stroke-dasharray:none;stroke-opacity:1" />
      <path
         d="M 1945.4374,530.3495 C 1945.5109,530.0265 1945.6314,529.7145 1945.7967,529.4135 C 1946.5547,530.0025 1947.9144,530.3825 1948.1915,531.3995 C 1948.4401,532.3185 1950.0185,532.2855 1950.7687,532.5815 C 1950.6375,531.9925 1950.3621,531.4885 1949.9435,531.0695 C 1951.2185,530.8475 1951.3141,531.9455 1951.6367,532.7885 C 1952.1188,534.0485 1953.7934,534.3245 1954.8786,534.9575 C 1955.2151,534.3515 1955.478,533.7705 1955.2099,533.1565 C 1957.5286,532.9685 1957.4147,537.3415 1957.2987,538.6985 C 1957.2215,539.5955 1956.8491,540.3995 1957.8645,540.7535 C 1959.3869,541.2835 1961.2406,541.7245 1962.9332,541.7245 C 1966.5137,541.7245 1970.2065,541.4095 1973.7558,541.7455 C 1975.3975,541.9005 1979.6116,544.6795 1975.6469,544.3165 C 1976.5144,546.5365 1973.4586,548.5465 1972.9694,550.3655 C 1972.3523,549.7535 1971.4679,550.9065 1971.0827,550.1485 C 1971.0466,551.3465 1969.7138,551.1115 1968.9641,551.0125 C 1969.1355,551.9975 1967.6976,553.6515 1967.4691,554.7245 C 1967.1485,556.2315 1968.3722,558.4335 1968.7867,559.7965 C 1968.9931,559.3215 1969.0825,558.8415 1969.0547,558.3565 C 1969.7483,558.6765 1970.4844,562.3985 1972.1415,560.2125 C 1972.7586,559.3975 1971.949,558.0245 1972.5631,556.9875 C 1973.168,555.9665 1973.4525,555.7685 1973.2592,554.6125 C 1974.1436,555.4765 1975.4964,553.2985 1975.9384,554.8395 C 1976.4626,556.6645 1976.5651,558.7855 1976.8627,560.6855 C 1977.2464,563.1335 1977.7961,565.4705 1978.0831,567.9555 C 1978.3596,570.3495 1978.1389,572.9945 1978.791,575.2775 C 1977.8899,575.5335 1977.0512,574.0305 1976.02,574.1935 C 1974.4724,574.4375 1975.9473,578.8105 1975.8405,579.6695 C 1975.2888,578.5895 1974.2148,577.2725 1974.0068,576.0585 C 1973.7858,574.7735 1973.8401,574.0135 1973.8435,572.7575 C 1973.8455,570.4345 1970.9325,567.9515 1973.0816,565.5575 C 1972.5603,565.9255 1972.1739,566.6365 1972.1066,567.2135 C 1971.7065,565.2345 1969.3408,563.6095 1969.8195,561.3815 C 1969.625,562.3065 1968.5159,562.6555 1967.8996,563.2705 C 1967.655,563.4945 1967.5594,563.7525 1967.6124,564.0455 C 1966.9422,564.2555 1966.3968,563.9495 1966.155,563.3975 C 1966.2809,563.6595 1966.2579,563.9105 1966.085,564.1505 C 1964.9609,564.7415 1963.8394,560.9965 1963.5845,560.5895 C 1963.3622,560.1155 1963.3247,559.6075 1963.4755,559.0625 C 1963.6247,558.1525 1963.237,557.9065 1963.085,557.1315 C 1962.9684,556.5335 1964.0678,556.3005 1963.7325,555.7655 C 1963.5156,556.3215 1964.4337,556.0585 1963.0076,556.1985 C 1963.0777,555.9315 1963.1606,555.6675 1963.2587,555.4055 C 1962.8546,555.6945 1962.4555,555.7425 1962.0613,555.5505 C 1962.3514,555.7775 1963.4243,557.3945 1962.244,557.2435 C 1961.6537,557.1685 1960.6312,556.7965 1960.2761,556.7025 C 1961.1617,557.2685 1962.5346,557.7305 1962.9729,558.7435 C 1963.2717,559.4325 1962.4683,559.9115 1961.8769,560.1575 C 1962.5158,561.0565 1961.9876,561.8715 1961.2387,562.6785 C 1962.6193,562.7075 1961.997,564.0295 1961.8166,564.9825 C 1962.0306,564.7315 1962.2576,564.4915 1962.4973,564.2625 C 1963.5103,565.2615 1963.3745,567.8695 1961.4488,568.2225 C 1961.6396,567.7125 1961.63,567.2335 1961.418,566.7835 C 1961.4266,567.9715 1960.9521,568.9535 1960.5735,570.0965 C 1960.1265,571.4505 1958.5647,570.8995 1959.3937,569.8075 C 1959.1499,570.0315 1958.8991,570.2465 1958.6431,570.4555 C 1958.4399,569.1755 1959.9851,568.7135 1960.2882,567.5765 C 1959.787,568.2365 1959.0955,568.7325 1958.4396,569.2305 C 1958.5639,568.7485 1958.7716,568.2925 1959.0636,567.8635 C 1958.6908,568.3235 1958.3124,568.7795 1957.9287,569.2305 C 1957.6528,567.7665 1957.6223,566.5205 1958.4202,565.0545 C 1956.7135,565.6985 1957.9349,567.1675 1957.221,568.2405 C 1956.7046,569.0165 1957.6759,569.0665 1957.2056,570.0085 C 1956.7843,570.8535 1955.9965,570.3915 1955.7068,569.8785 C 1955.5804,570.3325 1955.4947,570.7885 1955.4515,571.2465 C 1954.2996,571.2595 1955.424,567.0385 1955.5163,566.3505 C 1955.0036,567.3065 1955.3537,568.2625 1954.9866,569.2305 C 1954.718,568.4295 1954.4322,567.5955 1954.4353,566.7105 C 1954.2563,568.1455 1955.4286,570.2915 1953.7599,571.7505 C 1953.4242,571.0385 1953.9203,570.1955 1953.4766,569.5185 C 1953.6736,570.2365 1952.98,571.8005 1952.3654,572.3265 C 1952.6256,570.9535 1951.2748,569.8915 1951.3004,568.3825 C 1951.329,566.7115 1950.5469,565.4355 1950.4003,563.8315 C 1950.3292,563.0585 1950.2707,562.2825 1950.1245,561.5265 C 1949.9265,560.5055 1950.285,560.0185 1950.3282,559.0465 C 1950.3522,558.4955 1949.5501,558.5345 1949.1762,558.4425 C 1948.3934,558.2505 1949.0034,557.3345 1949.1343,556.7955 C 1949.4205,555.6185 1947.1639,555.5385 1947.4617,553.9665 C 1947.6145,553.1595 1948.5687,552.8765 1948.7682,552.1365 C 1948.977,551.3875 1948.8038,550.5325 1948.6084,549.8535 C 1948.2887,548.7435 1945.9954,548.6275 1945.0253,547.9185 C 1944.4549,547.5025 1943.4559,546.8925 1943.5151,546.0465 C 1943.5759,545.1595 1944.4916,544.5275 1944.6634,543.6705 C 1945.6104,545.8095 1946.6749,541.7905 1947.0161,541.7265 C 1947.8711,541.5645 1949.6214,541.4055 1950.3375,541.7985 C 1951.5046,540.3055 1949.4117,540.8435 1949.453,539.4225 C 1949.4811,538.4475 1948.0341,539.2505 1947.3853,538.7915 C 1946.5015,538.1675 1946.2611,536.9755 1945.1915,536.5395 C 1942.5081,535.4475 1944.474,532.2195 1946.9348,531.3575 C 1946.8215,530.6665 1946.1128,530.3635 1945.4374,530.3495"
         id="path3340"
         style="fill:#ffa500;stroke:#ffffff;stroke-width:1.00000131;stroke-miterlimit:4;stroke-dasharray:none;stroke-opacity:1" />
    </g>
    <g
       transform="matrix(0.9999987,0,0,0.9999987,-1490.0592,-31.394596)"
       class="land in"
       id="in"
       style="fill:#ffa500;stroke:#ffffff;stroke-width:1.00000131;stroke-miterlimit:4;stroke-dasharray:none;stroke-opacity:1">
      <path
         d="M 1982.0058,654.1896 C 1981.7839,654.5316 1981.6371,654.4266 1981.9497,654.9095 C 1981.9685,654.6685 1981.9871,654.4295 1982.0058,654.1896"
         id="path5460"
         style="fill:#ffa500;stroke:#ffffff;stroke-width:1.00000131;stroke-miterlimit:4;stroke-dasharray:none;stroke-opacity:1" />
      <path
         d="M 1985.9929,685.6535 C 1985.9917,685.8945 1986.0035,686.1345 1986.0294,686.3745 C 1986.0176,686.1336 1986.0047,685.8936 1985.9929,685.6535"
         id="path5466"
         style="fill:#ffa500;stroke:#ffffff;stroke-width:1.00000131;stroke-miterlimit:4;stroke-dasharray:none;stroke-opacity:1" />
      <path
         d="M 1977.8067,666.2855 C 1977.6618,665.9375 1977.4979,665.6015 1977.312,665.2765 C 1976.6299,665.8025 1976.1741,666.8345 1976.2883,667.6445 C 1976.5835,669.6915 1978.4021,667.5235 1977.8067,666.2855"
         id="path5450"
         style="fill:#ffa500;stroke:#ffffff;stroke-width:1.00000131;stroke-miterlimit:4;stroke-dasharray:none;stroke-opacity:1" />
      <path
         d="M 1979.8101,647.9975 C 1978.2823,649.1885 1979.4533,652.7595 1979.4702,654.1885 C 1977.698,653.8575 1976.8831,659.8055 1979.272,659.5885 C 1978.2768,658.8535 1979.4056,658.7755 1979.4703,657.9425 C 1979.5476,656.9485 1979.0305,656.0135 1979.4453,655.0145 C 1979.7609,654.2565 1980.4791,653.6025 1980.3881,652.7405 C 1980.2462,651.3935 1980.7892,652.2955 1981.1357,651.0655 C 1981.484,649.8265 1980.1709,648.5665 1980.5454,647.6105 C 1980.9122,646.6765 1982.8584,644.7365 1981.0567,644.3235 C 1981.8745,643.7405 1981.8388,642.8355 1981.3551,642.1645 C 1979.3695,643.5715 1980.3672,646.1185 1979.8101,647.9975"
         id="path5452"
         style="fill:#ffa500;stroke:#ffffff;stroke-width:1.00000131;stroke-miterlimit:4;stroke-dasharray:none;stroke-opacity:1" />
      <path
         d="M 1979.199,647.4215 C 1979.0781,647.4215 1978.9572,647.4215 1978.8363,647.4215 C 1978.8961,647.7025 1978.9964,647.9675 1979.1375,648.2135 C 1979.158,647.9495 1979.1785,647.6855 1979.199,647.4215"
         id="path5454"
         style="fill:#ffa500;stroke:#ffffff;stroke-width:1.00000131;stroke-miterlimit:4;stroke-dasharray:none;stroke-opacity:1" />
      <path
         d="M 1979.62,679.6055 C 1979.2765,679.7585 1979.0976,680.0225 1979.0812,680.3975 C 1979.8917,680.6285 1980.0707,680.3645 1979.62,679.6055"
         id="path5456"
         style="fill:#ffa500;stroke:#ffffff;stroke-width:1.00000131;stroke-miterlimit:4;stroke-dasharray:none;stroke-opacity:1" />
      <path
         d="M 1980.8815,655.7015 C 1981.0278,655.9545 1981.2542,656.0975 1981.5624,656.1335 C 1981.3351,655.9895 1981.1078,655.8455 1980.8815,655.7015"
         id="path5458"
         style="fill:#ffa500;stroke:#ffffff;stroke-width:1.00000131;stroke-miterlimit:4;stroke-dasharray:none;stroke-opacity:1" />
      <path
         d="M 1984.3322,690.2615 C 1982.2354,691.0155 1986.1405,691.8125 1984.3322,690.2615"
         id="path5462"
         style="fill:#ffa500;stroke:#ffffff;stroke-width:1.00000131;stroke-miterlimit:4;stroke-dasharray:none;stroke-opacity:1" />
      <path
         d="M 1985.4164,688.5335 C 1984.3863,688.5895 1985.0138,689.7395 1985.4248,690.0455 C 1985.2262,689.5515 1985.2237,689.0485 1985.4164,688.5335"
         id="path5464"
         style="fill:#ffa500;stroke:#ffffff;stroke-width:1.00000131;stroke-miterlimit:4;stroke-dasharray:none;stroke-opacity:1" />
      <path
         d="M 1986.6873,695.4455 C 1986.0738,695.6755 1985.9082,696.3645 1986.1877,696.8855 C 1986.7804,696.5835 1987.0886,696.0205 1986.6873,695.4455"
         id="path5468"
         style="fill:#ffa500;stroke:#ffffff;stroke-width:1.00000131;stroke-miterlimit:4;stroke-dasharray:none;stroke-opacity:1" />
      <path
         d="M 1987.97,697.3895 C 1985.3627,696.0645 1987.3267,700.2025 1987.7977,701.0615 C 1988.6904,699.2785 1987.9268,698.9515 1987.97,697.3895"
         id="path5470"
         style="fill:#ffa500;stroke:#ffffff;stroke-width:1.00000131;stroke-miterlimit:4;stroke-dasharray:none;stroke-opacity:1" />
      <path
         d="M 1791.7478,553.8935 C 1791.8206,552.1955 1793.7365,552.1655 1794.992,552.1655 C 1796.4732,552.1655 1795.9796,549.9375 1796.0029,549.1415 C 1796.9538,549.6275 1799.1191,549.7265 1800.217,549.4135 C 1802.2251,548.8405 1803.536,551.3095 1805.5415,550.4365 C 1806.0047,550.2345 1809.105,547.1555 1809.7281,548.3915 C 1810.7488,550.4125 1812.1526,549.5945 1813.9822,548.3485 C 1812.3714,548.0235 1814.0492,545.9385 1813.575,544.9235 C 1812.7345,543.1275 1811.7886,541.4415 1810.7692,539.7505 C 1810.2075,538.8225 1811.2926,536.7205 1809.3179,537.2765 C 1807.6686,537.7415 1806.0316,535.6905 1806.354,534.1935 C 1806.5826,533.1325 1807.211,530.7765 1806.3207,529.9565 C 1804.8728,528.6235 1801.9157,529.6485 1801.4576,527.1315 C 1801.1668,525.3095 1803.1676,523.4695 1804.392,522.1335 C 1805.2727,521.1745 1805.8365,520.0635 1806.5638,519.0095 C 1807.0754,518.2665 1808.1678,516.5955 1809.2595,516.8645 C 1810.6772,517.2145 1810.1781,519.6105 1811.7628,519.7525 C 1812.6659,519.8335 1813.6839,519.1705 1814.528,518.8305 C 1815.5689,518.4115 1816.5465,518.4605 1817.6009,518.3225 C 1820.0441,518.0015 1819.8859,516.1285 1821.4638,514.7655 C 1823.3761,513.1175 1822.7332,510.9475 1825.3697,509.6195 C 1827.7826,508.4055 1828.9314,506.8945 1830.0366,504.5115 C 1830.8762,502.7695 1830.8343,500.4615 1833.1732,499.7425 C 1833.9719,499.4975 1834.9169,499.3365 1835.4746,498.5965 C 1836.2589,497.5555 1834.8957,497.3215 1835.0008,496.7965 C 1835.1277,496.1645 1837.2966,493.9385 1837.803,493.3605 C 1838.7508,492.2835 1840.6619,491.7025 1841.4141,490.5325 C 1839.8139,490.5025 1840.5024,489.0585 1840.6949,488.0115 C 1840.9281,486.7405 1839.8948,485.7845 1840.1415,484.6935 C 1840.574,482.7845 1844.506,482.4235 1845.863,481.1925 C 1848.1929,479.0785 1842.7706,478.8735 1841.8898,478.5435 C 1840.9842,478.2045 1841.6774,476.8315 1840.7524,476.3005 C 1840.1208,475.9375 1839.2719,475.9435 1838.6042,475.6285 C 1839.0646,474.8635 1838.8089,474.4265 1838.1865,474.0765 C 1837.5233,473.7025 1835.6385,472.5345 1836.3865,471.6205 C 1837.0971,470.7545 1837.6663,469.8315 1836.7477,469.1345 C 1836.1838,468.7075 1835.285,467.8015 1836.366,467.0445 C 1836.7966,466.7435 1839.2527,465.3505 1837.435,465.1945 C 1837.138,465.1685 1834.2798,465.1465 1835.2972,464.1605 C 1836.5734,462.9245 1835.18,463.0165 1834.4831,462.4175 C 1833.6483,461.6715 1835.8167,459.7175 1836.5743,459.3315 C 1838.5245,458.3385 1840.123,459.0985 1841.8005,459.4705 C 1843.7004,459.8915 1845.5675,460.3645 1847.454,460.8025 C 1849.0617,461.1755 1850.3211,460.1745 1851.9541,459.6775 C 1853.379,459.2445 1854.7523,459.3005 1856.1544,458.9065 C 1856.5923,458.7835 1859.4803,456.5535 1859.3755,456.2645 C 1859.0903,455.4815 1861.8431,454.2845 1862.6296,453.7815 C 1863.2614,453.3785 1863.9492,452.9315 1864.6576,452.7165 C 1865.2522,452.5355 1865.4035,452.9695 1865.8926,452.8395 C 1867.5321,452.4055 1866.5497,454.2595 1867.0649,455.1165 C 1867.8401,456.4065 1867.5967,458.2168 1868.5976,459.3495 C 1869.6691,460.5639 1872.5554,460.1976 1873.5031,462.1155 C 1873.7784,462.6504 1874.5861,463.2385 1873.6867,463.8255 C 1871.9646,464.9505 1872.3183,465.1275 1872.5603,466.8045 C 1872.7755,468.2995 1872.8504,469.7465 1873.8781,470.8665 C 1874.6587,471.7195 1876.3745,471.8105 1877.0019,472.6255 C 1877.308,473.0235 1877.002,473.6995 1877.1404,474.1725 C 1877.2961,474.7065 1877.7055,475.0915 1877.9906,475.5455 C 1878.957,477.0775 1877.4665,477.3825 1876.2957,478.2215 C 1875.2597,478.9635 1873.5286,480.4905 1873.0364,478.5635 C 1872.6611,477.0975 1871.5511,476.9025 1869.7623,478.0055 C 1870.1842,478.5975 1870.2452,479.2715 1870.3039,480.0105 C 1870.3701,480.8375 1871.1314,481.2545 1871.5688,481.8515 C 1872.5085,483.1325 1871.8615,484.5755 1872.7301,485.6885 C 1873.2443,486.3475 1871.5836,489.0475 1873.465,488.8055 C 1874.2843,488.7005 1874.1586,487.9855 1874.7862,487.7925 C 1875.7711,487.4885 1875.9019,488.4915 1876.1414,489.0305 C 1876.4817,489.8005 1877.9206,491.4435 1878.8164,491.6215 C 1879.8865,491.8345 1880.7616,491.1475 1881.481,492.1655 C 1881.917,492.7835 1882.905,492.5545 1883.3993,493.0535 C 1883.7338,493.3905 1883.6516,494.0005 1883.6681,494.4615 C 1883.696,495.2355 1884.6148,495.2435 1885.2282,495.5275 C 1886.9101,496.3105 1888.7493,496.6685 1889.8109,498.2375 C 1887.7059,498.3555 1886.5955,501.1765 1884.9565,502.1385 C 1884.7993,502.2305 1884.7504,503.6465 1884.5157,503.9795 C 1883.6757,505.1665 1884.4166,505.6715 1883.9874,506.7915 C 1883.5962,507.8155 1881.6026,508.8955 1882.5955,510.1085 C 1883.1873,510.8335 1885.6438,512.8695 1885.903,511.4135 C 1887.0237,512.1675 1888.348,513.2455 1889.6353,513.7385 C 1891.1625,514.3235 1891.657,515.5935 1893.0009,516.4575 C 1893.3981,516.7125 1895.4487,518.5635 1896.1166,518.3225 C 1897.681,517.7575 1898.8991,518.9145 1900.0288,519.5315 C 1900.5103,519.7945 1902.3094,519.8215 1902.5342,520.1625 C 1903.3166,521.3495 1903.3957,521.6715 1905.0815,522.0145 C 1905.968,522.1955 1906.9943,523.1195 1908.0285,522.4655 C 1909.4088,521.5925 1909.9995,522.2825 1911.2504,522.8615 C 1910.7924,520.6005 1916.2092,522.8975 1916.5879,523.0155 C 1918.1079,523.4905 1916.6746,525.5515 1918.0922,525.8835 C 1919.3071,526.1675 1921.1153,526.7865 1921.6929,527.8585 C 1922.1751,528.7165 1923.6846,527.4845 1924.4444,527.4235 C 1926.3046,527.2745 1924.9802,529.9495 1927.5278,528.9905 C 1928.2784,528.7075 1931.2533,529.7515 1931.8828,530.1505 C 1933.5038,531.1755 1934.0464,530.1555 1935.7405,529.6295 C 1935.7357,530.7605 1937.473,531.8885 1938.4646,531.0405 C 1938.8406,530.7185 1941.4525,531.0455 1942.0291,531.0575 C 1943.2634,531.0845 1943.5237,531.0005 1943.8883,529.7095 C 1944.5599,527.5095 1943.6606,526.6535 1943.1641,524.7705 C 1942.8912,523.7375 1943.2859,522.4415 1943.6035,521.3425 C 1943.9871,520.0095 1943.8622,518.9775 1944.0437,517.6775 C 1945.4441,517.5845 1947.2473,516.4545 1948.5516,516.8425 C 1951.1113,517.6035 1948.092,520.8485 1948.9769,522.2125 C 1949.1358,522.4575 1950.0382,523.0355 1949.6367,523.4625 C 1949.0175,524.1205 1948.5775,524.0375 1948.9306,524.9795 C 1949.7076,527.0515 1951.3105,526.9885 1953.3321,527.2505 C 1954.6917,527.4265 1955.33,528.6235 1956.7337,528.4815 C 1957.3219,528.4225 1958.255,528.4045 1958.8228,528.0735 C 1959.4159,527.7295 1960.7012,526.4445 1961.3488,526.9535 C 1962.9705,528.2275 1965.4011,527.8095 1967.5739,527.7295 C 1968.2372,527.7055 1969.4989,526.8975 1969.7798,527.3255 C 1970.2109,527.9845 1972.2523,527.3255 1973.0986,527.2305 C 1975.2191,526.9935 1973.1969,525.1985 1973.6496,524.3325 C 1975.1535,521.4655 1971.7746,522.6535 1970.7874,521.3105 C 1970.2481,520.5775 1970.275,519.0745 1971.6957,519.4245 C 1972.8334,519.7055 1973.3175,519.1425 1974.4195,518.9035 C 1976.0766,518.5435 1978.8134,519.3375 1978.7154,516.6985 C 1978.6732,515.5875 1982.2247,514.4715 1982.6782,512.9545 C 1983.3971,510.5605 1986.3564,511.7395 1988.0855,510.3775 C 1989.473,509.2865 1990.4207,507.9915 1991.9257,506.9995 C 1992.4805,506.6335 1993.0514,506.2315 1993.6447,505.9395 C 1994.1557,505.6875 1996.0436,507.2625 1996.4553,507.5275 C 1996.0176,506.9955 1996.2226,506.9795 1997.0705,507.4825 C 1997.7485,507.7835 1998.5055,508.2865 1999.3516,508.2535 C 2000.2167,508.2195 2000.2945,507.2325 2000.7185,506.7065 C 2001.4752,505.7665 2003.5187,505.1745 2004.6005,504.7955 C 2004.8396,504.7125 2006.6418,506.5815 2006.8532,506.8085 C 2005.2224,507.4385 2005.3047,507.6285 2005.4361,508.7155 C 2005.5293,509.4855 2007.5309,508.1365 2007.937,508.0315 C 2007.3879,509.0875 2009.183,509.7565 2008.65,510.5945 C 2007.8364,511.8685 2007.2026,512.3015 2006.6507,513.5765 C 2006.2568,514.4845 2008.3498,513.6945 2008.6966,513.6065 C 2010.1736,513.2335 2010.9031,514.6045 2012.4133,514.1885 C 2013.7087,513.8315 2014.3872,515.4105 2014.1669,516.4085 C 2014.0845,516.7815 2014.5864,517.0875 2014.4618,517.3655 C 2014.1629,518.0345 2012.8722,518.8415 2012.3048,519.2935 C 2009.247,521.7315 2012.7794,522.7155 2012.7076,525.0235 C 2010.9092,525.6815 2010.8616,523.4835 2009.5981,523.1305 C 2008.3878,522.7925 2005.0003,523.8665 2003.9466,524.8945 C 2003.141,525.6815 2002.4627,526.3455 2001.5418,527.0205 C 2001.1567,527.4675 2000.7031,527.6415 2000.1817,527.5435 C 1999.6334,527.9115 2000.0365,528.1795 1999.2158,528.5995 C 1998.3485,529.0475 1997.7289,528.5295 1997.2481,529.6575 C 1996.8948,530.4865 1996.8767,531.4295 1996.9857,532.2425 C 1997.0686,532.8625 1997.4956,533.2885 1997.5969,533.8685 C 1997.732,534.6435 1996.5731,535.0865 1996.7087,535.9255 C 1997.0405,537.9635 1993.0894,539.2945 1993.6396,541.0005 C 1993.8368,541.6125 1994.4899,541.8265 1994.6424,542.5205 C 1994.8756,543.5855 1993.993,544.8685 1993.382,545.7975 C 1991.8728,548.0925 1990.4172,550.6425 1990.055,553.2485 C 1989.3938,552.6735 1987.5592,552.1185 1986.6647,551.8845 C 1986.1931,551.9165 1985.7218,551.9805 1985.25,552.0765 C 1984.6756,551.9595 1984.5965,551.4525 1983.8715,551.5925 C 1984.3441,553.6285 1984.5153,555.4415 1984.3322,557.6005 C 1984.2547,558.5105 1983.9599,561.3845 1982.4412,560.1605 C 1982.4265,562.1295 1982.0637,563.5735 1982.6,565.4335 C 1982.7906,566.0945 1983.1396,568.3135 1981.7196,567.4325 C 1980.5307,570.4145 1981.046,568.5865 1979.082,567.8655 C 1979.1276,568.4475 1978.8028,569.0175 1978.2795,569.3775 C 1977.8281,567.8635 1977.9414,566.1535 1977.8461,564.5525 C 1977.7323,562.6265 1976.7382,560.9625 1976.4732,559.0715 C 1976.2675,557.6065 1975.904,556.1325 1975.8244,554.6485 C 1975.7558,553.3505 1973.9788,555.3265 1973.2524,554.6175 C 1973.3951,555.4715 1973.6648,556.1245 1972.77,556.8245 C 1971.8089,557.5765 1972.2278,558.4625 1972.2674,559.3575 C 1972.3059,560.2155 1971.1314,561.2505 1970.3621,560.6285 C 1969.6108,560.0225 1970.0412,558.8185 1969.049,558.3605 C 1969.0768,558.8455 1968.9863,559.3265 1968.7811,559.8005 C 1968.3337,558.3255 1967.8802,556.8545 1967.4666,555.3655 C 1967.0501,553.8655 1969.1968,552.3695 1968.9585,551.0155 C 1969.7083,551.1145 1971.0411,551.3495 1971.0771,550.1515 C 1971.4623,550.9095 1972.3467,549.7565 1972.9639,550.3685 C 1973.4739,548.4785 1976.5224,546.5725 1975.6413,544.3195 C 1976.0985,544.3615 1978.0426,544.2805 1977.2683,543.3765 C 1976.3614,542.3175 1974.4861,541.7095 1972.9943,541.7285 C 1971.6735,541.7455 1970.3281,541.9855 1969.0423,541.7795 C 1967.3525,541.5095 1965.771,541.9925 1964.0771,541.7845 C 1961.9394,541.5235 1956.3609,542.0915 1957.141,538.8925 C 1957.4732,537.5345 1957.4543,532.9765 1955.2043,533.1595 C 1955.4724,533.7735 1955.2097,534.3535 1954.8731,534.9605 C 1953.9198,534.4055 1952.5696,534.2385 1951.9727,533.2555 C 1951.4733,532.4325 1951.3545,530.8265 1949.9379,531.0725 C 1950.3565,531.4915 1950.6319,531.9955 1950.7631,532.5845 C 1950.0325,532.2955 1949.1673,532.2775 1948.4698,531.9145 C 1948.0273,531.6845 1947.9225,530.9715 1947.5281,530.6275 C 1946.9977,530.1655 1946.3477,529.8485 1945.7911,529.4165 C 1944.7702,530.8315 1946.7328,530.1575 1946.9283,531.3595 C 1944.4667,532.2205 1942.5016,535.4495 1945.1851,536.5415 C 1946.2557,536.9775 1946.4951,538.1695 1947.3789,538.7935 C 1948.0267,539.2515 1949.4736,538.4495 1949.4466,539.4245 C 1949.4052,540.8455 1951.4981,540.3075 1950.331,541.8005 C 1949.7342,541.4725 1948.6798,541.5755 1947.9797,541.6395 C 1947.0316,541.7265 1946.8071,541.7865 1946.5942,542.6255 C 1946.372,543.5015 1945.2602,545.0345 1944.657,543.6725 C 1944.3591,545.1575 1942.9682,546.3325 1944.3317,547.5605 C 1945.3304,548.4595 1946.6356,549.0265 1948.0529,549.1295 C 1950.9142,549.3405 1945.384,555.9315 1948.6768,556.1725 C 1949.6441,556.2435 1948.9092,557.4275 1949.0307,558.1645 C 1949.0777,558.4435 1949.8859,558.5515 1950.0208,558.5925 C 1950.776,558.8215 1949.8353,559.9195 1949.831,560.3765 C 1949.8197,561.3015 1950.5616,561.8885 1950.4601,562.8285 C 1950.323,564.0895 1950.224,564.7875 1950.7236,565.9215 C 1951.2318,567.0795 1951.7069,568.6755 1950.9197,569.8805 C 1950.6575,569.7015 1950.3866,569.5335 1950.1081,569.3765 C 1950.2698,569.8585 1951.7443,571.7545 1951.0831,572.2395 C 1950.3799,572.7575 1949.6443,571.8325 1949.7047,571.2485 C 1949.4647,572.0305 1948.7701,572.7155 1948.4011,571.6805 C 1948.0126,570.5905 1948.8356,569.2175 1948.9509,568.0805 C 1948.2112,568.4165 1948.8753,569.1035 1947.9943,569.7355 C 1948.2814,568.9735 1947.8792,568.2455 1948.3619,567.5045 C 1946.8343,568.5415 1947.6523,571.8975 1947.2215,573.3365 C 1947.0301,572.3845 1947.6115,570.8495 1946.7629,570.1685 C 1946.7604,570.2725 1946.6519,572.8425 1946.2514,572.5585 C 1946.1366,572.3765 1946.0372,572.1865 1945.9542,571.9875 C 1945.2664,570.8245 1945.6247,573.7145 1945.1835,571.5365 C 1945.4474,572.0515 1945.4021,572.5795 1945.0457,573.1205 C 1944.1558,572.2275 1944.4341,570.3035 1944.4748,569.0885 C 1944.5344,567.2185 1942.9802,567.5775 1942.5932,566.0645 C 1942.6394,567.5805 1945.2,567.2875 1943.7584,569.2285 C 1942.1333,571.4155 1940.7693,572.3065 1938.1428,573.0495 C 1936.7507,573.4445 1934.8257,574.1325 1934.3308,575.6665 C 1933.9964,576.7095 1934.5678,580.1205 1935.3067,580.8965 C 1934.7416,581.2875 1933.8899,581.6885 1933.5625,582.3215 C 1933.0639,583.2865 1934.0131,583.3615 1932.7231,584.2785 C 1931.1853,585.3715 1930.3914,587.4785 1928.9583,585.2895 C 1929.0977,586.1125 1930.0275,586.5085 1930.6729,586.8735 C 1928.4027,587.9245 1925.9801,588.9895 1923.5499,589.3205 C 1924.3529,588.9165 1924.7868,587.1205 1923.5415,587.5255 C 1922.2657,587.9405 1920.9643,589.6765 1921.2276,590.9045 C 1921.4375,590.4405 1922.7522,588.9015 1923.0677,589.6805 C 1922.295,589.8905 1920.9116,591.8075 1920.1132,592.4925 C 1918.3206,594.0295 1917.2771,595.9045 1915.9307,597.7945 C 1914.6143,599.7065 1913.1112,601.6035 1910.9154,602.5475 C 1909.0321,603.3575 1908.6047,605.7295 1906.7531,606.5285 C 1907.866,607.2275 1901.9054,609.8565 1901.2176,610.4215 C 1900.5463,610.9735 1899.8123,611.7775 1899.4169,612.5375 C 1898.779,613.7645 1900.4092,614.0765 1899.7246,615.4775 C 1898.3711,618.2515 1895.0673,618.0115 1892.6252,618.1305 C 1891.6309,618.1795 1891.4544,618.8835 1891.156,619.7155 C 1890.8305,620.6235 1889.713,622.2385 1889.7086,623.0885 C 1888.9589,622.7045 1889.0088,621.9225 1888.7786,621.2165 C 1889.029,622.0295 1888.4576,622.7825 1888.1445,623.5205 C 1888.8958,621.0845 1885.2089,622.4655 1884.4741,623.6465 C 1883.3966,625.3775 1881.9719,628.0255 1882.498,629.9565 C 1882.9307,631.5445 1883.4404,633.2685 1883.3251,634.8945 C 1883.1282,637.6805 1883.4896,639.8915 1884.0369,642.6015 C 1883.8399,642.1335 1882.9096,639.8925 1882.8714,641.7375 C 1882.3335,640.4155 1882.2099,642.1295 1882.6774,642.4295 C 1883.2778,642.8135 1883.8878,642.8595 1884.2618,643.5445 C 1884.9477,644.8005 1884.0371,648.0685 1883.7451,649.4275 C 1883.2257,651.8555 1881.6615,653.7015 1880.7879,655.9865 C 1880.1067,657.7655 1880.7818,660.3425 1879.3771,661.8255 C 1879.6145,661.6095 1879.8684,661.4185 1880.1399,661.2505 C 1880.8905,662.1955 1880.8099,663.5465 1880.7229,664.7185 C 1880.5785,666.6435 1880.8928,668.5455 1880.7275,670.4665 C 1880.2187,670.4275 1879.7151,670.3565 1879.2189,670.2505 C 1881.1504,670.8795 1879.1633,670.5685 1878.8183,670.4755 C 1878.0985,670.2805 1877.053,669.9075 1876.5704,670.7965 C 1876.3204,671.2585 1875.934,671.8185 1876.1899,672.3435 C 1876.5713,673.1285 1875.3834,673.8945 1874.9945,674.4975 C 1874.2381,675.6675 1872.7503,678.2315 1874.7385,679.0855 C 1875.2541,679.3075 1875.9152,679.2425 1876.4393,679.0375 C 1876.8073,678.8925 1877.5146,680.1985 1877.7386,680.4025 C 1875.8301,678.3555 1872.4693,679.6345 1870.2782,680.6905 C 1867.4279,682.0635 1868.6068,684.6745 1867.1802,686.7885 C 1866.4582,687.8555 1865.0937,688.5895 1863.95,689.0895 C 1862.1484,689.8775 1861.1701,689.0835 1859.8876,687.8915 C 1859.2962,687.3405 1854.7512,682.3705 1856.2752,681.9875 C 1854.9264,682.4625 1854.5102,679.8095 1854.0799,678.6935 C 1853.469,677.1075 1852.8216,675.2325 1853.3372,673.4915 C 1853.7037,674.1165 1853.834,674.8535 1853.8422,675.5795 C 1854.0764,673.8445 1853.6806,677.2505 1854.7181,677.3805 C 1854.3949,676.4335 1854.7092,675.3545 1854.3158,674.4285 C 1853.9797,673.6365 1853.2,673.2085 1853.1706,672.2685 C 1853.1364,674.1095 1852.5869,672.3255 1852.6417,671.9295 C 1852.7697,670.9975 1852.241,670.7075 1851.8451,669.7025 C 1851.1788,667.9135 1850.6775,666.0465 1850.1017,664.2245 C 1849.8847,663.5385 1846.0743,656.6935 1846.3325,656.3565 C 1843.8646,653.0945 1842.2578,649.1705 1841.592,645.0825 C 1841.3798,643.6285 1841.2974,642.3035 1840.8783,640.9375 C 1840.5995,640.0315 1840.2873,639.1885 1839.9848,638.2985 C 1839.7569,637.6275 1838.8445,635.9125 1840.0251,636.3405 C 1838.7166,635.8955 1839.1709,634.0475 1838.532,633.1005 C 1838.1266,632.4985 1835.9728,631.2995 1837.9026,630.9405 C 1836.739,631.4485 1836.2765,630.1205 1836.0163,629.3065 C 1835.8123,628.6675 1835.6566,628.0035 1835.3825,627.3935 C 1835.1015,626.7685 1834.1141,626.4795 1835.4223,626.3315 C 1834.7959,626.1715 1834.3237,625.2705 1834.3919,624.6495 C 1834.4629,624.0055 1833.7613,623.8075 1833.3135,623.1095 C 1832.232,621.4235 1831.5979,619.4135 1831.1179,617.4565 C 1830.7836,616.0955 1830.5225,614.6675 1830.6389,613.2275 C 1830.7602,611.7275 1830.0505,610.3265 1829.9282,608.8525 C 1829.8135,607.4715 1829.1189,606.2885 1828.8009,604.9595 C 1828.5928,604.0905 1827.2272,601.2175 1828.6416,601.7785 C 1828.4024,601.4465 1826.5892,598.8765 1828.2902,599.8355 C 1828.0854,598.7815 1826.8481,598.1075 1827.4592,596.8835 C 1827.6866,597.0715 1827.9105,597.2635 1828.1309,597.4595 C 1828.2373,596.8445 1828.0691,596.3405 1827.6274,595.9465 C 1828.7286,595.5365 1828.2704,594.5365 1828.1457,593.7875 C 1828.0209,594.3935 1827.7457,594.9415 1827.25,595.3715 C 1826.5881,594.1165 1827.1219,591.2915 1828.7063,593.2835 C 1828.4857,592.5775 1825.8728,592.1325 1826.8122,591.1395 C 1827.1398,590.7935 1826.0601,589.3685 1825.9692,588.9275 C 1825.7265,587.7465 1825.8049,586.5805 1826.1779,585.3705 C 1826.763,583.4785 1828.1187,581.4995 1827.5471,579.5625 C 1827.4731,579.3105 1827.2975,575.9985 1826.1907,577.2255 C 1826.6167,576.3575 1826.4223,576.3325 1825.6065,577.1535 C 1826.6232,576.0955 1825.0889,575.7745 1825.4344,574.9945 C 1825.6594,574.4885 1825.8576,573.9465 1825.991,573.4195 C 1826.1866,572.6515 1828.8777,572.1675 1829.4626,571.2505 C 1827.3829,572.6655 1823.0576,571.5665 1826.2722,569.4495 C 1825.2087,569.8925 1824.0898,569.1945 1824.9449,568.0825 C 1825.6771,567.1305 1826.5797,568.0985 1827.3236,567.1455 C 1826.2898,567.3985 1824.2187,567.0385 1823.7557,566.0655 C 1823.6396,566.5565 1822.633,566.7465 1822.6624,566.6415 C 1822.5239,567.1135 1823.2387,567.1895 1823.1808,567.9155 C 1823.1036,568.8935 1822.3624,569.1885 1821.489,569.4485 C 1821.6533,569.6945 1821.8254,569.9345 1822.0061,570.1695 C 1821.4317,570.0155 1820.9676,570.3495 1820.7456,570.8895 C 1822.7553,571.5185 1823.5111,572.8475 1821.9478,574.7355 C 1821.3939,575.4045 1821.564,576.3395 1820.588,576.6865 C 1819.4037,577.1075 1818.3001,577.8525 1817.1989,578.4655 C 1815.2523,579.5485 1813.0276,580.8825 1810.8774,580.1705 C 1808.7088,579.4535 1806.2528,577.3925 1805.1098,575.4985 C 1803.4127,572.6815 1800.638,570.9115 1798.5677,568.4385 C 1798.0223,567.7875 1796.5093,565.5725 1798.5389,565.2995 C 1799.0925,565.2255 1799.0171,566.2485 1799.4064,566.4665 C 1800.1502,566.8815 1801.6299,566.5525 1801.8713,565.5625 C 1802.5365,566.6275 1806.3159,564.6245 1807.113,563.9065 C 1807.8046,563.2825 1807.7841,562.3155 1808.3079,561.6025 C 1808.8601,560.8535 1810.143,560.3505 1809.1931,559.4425 C 1808.6161,559.9505 1809.0476,561.1535 1808.0346,561.0985 C 1806.9412,561.0385 1806.0244,561.2465 1804.9253,561.5985 C 1803.9902,561.8985 1803.5521,562.7225 1802.5264,562.6745 C 1801.2766,562.6155 1800.0869,562.0265 1799.0472,561.4705 C 1798.0101,560.9155 1796.8202,560.4325 1795.898,559.7255 C 1795.1621,559.1615 1795.2441,557.7595 1794.3341,557.4295 C 1791.2566,556.3055 1795.2265,553.8965 1796.2427,553.1795 C 1794.5599,552.9915 1793.1336,556.1645 1791.5215,555.4105 C 1791.896,554.9145 1791.9699,554.4105 1791.7478,553.8935"
         id="path5490"
         style="fill:#ffa500;stroke:#ffffff;stroke-width:1.00000131;stroke-miterlimit:4;stroke-dasharray:none;stroke-opacity:1" />
    </g>
    <g
       transform="matrix(0.9999987,0,0,0.9999987,-1490.0592,-31.394596)"
       class="land lk"
       id="lk"
       style="fill:#ffa500;stroke:#ffffff;stroke-width:1.00000131;stroke-miterlimit:4;stroke-dasharray:none;stroke-opacity:1">
      <path
         d="M 1879.8151,680.8295 C 1880.013,681.3395 1880.8247,681.6575 1881.2146,681.9805 C 1881.0838,681.2965 1880.5402,680.7975 1879.8151,680.8295"
         id="path6496"
         style="fill:#ffa500;stroke:#ffffff;stroke-width:1.00000131;stroke-miterlimit:4;stroke-dasharray:none;stroke-opacity:1" />
      <path
         d="M 1880.3907,693.7895 C 1880.2805,696.9995 1880.963,710.1325 1886.9629,708.1995 C 1889.692,707.3195 1893.7777,705.4765 1895.3097,702.9095 C 1896.5736,700.7925 1897.2483,697.0575 1895.8704,694.9405 C 1895.8552,695.3175 1894.6263,692.7525 1894.3167,692.4205 C 1896.1279,693.7475 1893.947,690.9615 1893.6891,690.5145 C 1892.872,689.0985 1892.9191,687.4715 1892.2571,686.0125 C 1891.6876,686.4765 1891.0899,686.3155 1890.7532,685.7245 C 1892.5329,685.8655 1888.6915,680.8605 1888.5018,680.1515 C 1888.2982,679.3875 1883.963,674.1565 1883.0881,674.9245 C 1884.0155,675.1435 1884.4976,676.0355 1885.119,676.6525 C 1884.1583,676.0825 1882.447,673.6015 1881.2015,675.1405 C 1881.713,675.9525 1882.7183,676.0285 1883.3817,676.6525 C 1883.5411,675.7665 1885.8417,677.1935 1886.2957,677.8775 C 1885.8739,677.5495 1883.5109,676.9925 1882.8543,677.0135 C 1883.3199,677.6865 1882.8502,677.7065 1882.4874,678.1745 C 1881.9841,678.8205 1882.9799,679.8735 1882.3014,680.9165 C 1880.7225,683.3455 1880.8255,687.6325 1880.6007,690.4775 C 1879.4592,690.1415 1880.0495,688.6425 1880.0539,687.8135 C 1878.8634,689.5465 1880.2838,691.9875 1880.3907,693.7895"
         id="path6498"
         style="fill:#ffa500;stroke:#ffffff;stroke-width:1.00000131;stroke-miterlimit:4;stroke-dasharray:none;stroke-opacity:1" />
      <path
         d="M 1881.0282,675.7175 C 1881.1409,676.2005 1881.1067,676.4065 1881.7287,676.2935 C 1881.4952,676.1015 1881.2628,675.9095 1881.0282,675.7175"
         id="path6500"
         style="fill:#ffa500;stroke:#ffffff;stroke-width:1.00000131;stroke-miterlimit:4;stroke-dasharray:none;stroke-opacity:1" />
    </g>
    <path
       class="land np"
       d="M 392.5557,477.49834 C 393.1682,476.31924 394.2171,475.72224 393.8193,474.47224 C 393.5914,473.68335 393.8666,473.33525 394.4778,472.57535 C 395.2284,471.64235 394.621,470.95735 395.6092,470.05335 C 396.9869,468.79425 398.5556,466.29225 400.11769,467.56335 C 400.39949,467.79225 400.63069,468.75425 401.25049,468.36035 C 402.22259,467.74125 402.66359,466.54135 402.71799,465.61926 C 403.59209,465.96826 403.98369,464.90726 404.57729,465.10336 C 405.61709,465.44826 407.13349,465.03436 407.70729,466.12336 C 408.72068,468.04925 411.60348,469.80725 413.53128,470.89735 C 415.11718,471.79525 416.32887,471.88035 417.28607,473.29335 C 418.27957,474.73334 418.77977,476.04834 420.75097,475.12834 C 421.79557,474.64124 422.75427,474.97224 423.39746,475.61724 C 424.12346,476.34524 423.76766,477.86334 424.49396,478.26934 C 425.84296,479.02234 427.55736,480.96434 429.31836,480.81534 C 430.20886,480.74024 430.83186,480.39234 431.24365,481.09124 C 431.58345,481.66633 430.29086,482.13523 431.07855,482.85123 C 431.68155,483.39733 434.69855,484.43433 435.30985,482.97123 C 435.52155,484.37733 437.05645,485.00423 437.49155,486.25923 C 438.05165,487.87233 438.58984,484.74833 438.97744,484.48333 C 438.84984,485.36633 440.72894,487.35523 441.64704,486.10833 C 441.98854,485.64423 441.99814,484.76023 442.75994,485.16323 C 443.43154,485.51823 443.90324,485.72333 444.65234,485.97023 C 445.49794,486.24833 445.73864,486.79223 446.42273,487.17933 C 447.02503,487.51823 447.93073,487.04633 448.58983,487.36923 C 449.99013,488.05823 452.18973,486.47833 453.58963,487.03133 C 455.00732,487.59123 452.91643,491.47922 452.83873,492.65632 C 452.68703,494.91132 454.64972,495.84522 453.68253,498.37831 C 452.94993,500.42931 451.39383,499.44531 449.41833,499.67531 C 447.87053,499.85521 445.67174,500.29221 445.68074,498.23521 C 444.23114,498.68621 443.60314,499.88321 442.16244,498.97121 C 441.47314,498.53531 438.23565,497.37731 437.39665,497.68121 C 435.70705,498.29321 436.09655,497.51921 435.37535,496.65132 C 434.32125,495.32622 433.14995,496.98832 431.73465,496.65132 C 430.69166,496.40232 430.10936,495.01132 429.04856,494.74332 C 427.56106,494.36732 427.82966,493.80532 427.42616,492.57622 C 427.02276,491.34432 420.79227,489.50132 421.19147,491.46832 C 420.40207,491.10232 419.37217,490.13522 418.28427,490.61422 C 416.77747,491.28032 416.42207,491.43032 414.93978,490.73922 C 414.12788,490.36122 412.90658,490.30722 412.67868,489.33332 C 412.34878,487.92823 411.03148,488.96023 409.97748,488.27233 C 408.99538,487.62923 408.26708,487.02733 406.95999,486.89633 C 405.20659,486.72023 404.21839,485.71333 402.75769,485.00733 C 401.48489,484.39233 400.92809,483.01923 399.7442,482.24233 C 398.5003,481.42534 397.0769,480.84934 395.8423,480.01934 C 395.6064,481.34434 394.3124,480.11724 393.5775,479.61134 C 393.0647,479.25534 391.75981,478.33634 392.5557,477.49834"
       id="np"
       style="fill:#ffa500;stroke:#ffffff;stroke-width:1;stroke-miterlimit:4;stroke-dasharray:none;stroke-opacity:1" />
    <path
       class="land bt"
       id="bt"
       d="M 458.58912,493.32402 C 458.70322,492.73702 459.06282,492.69502 459.50142,492.38702 C 460.16332,491.92402 459.78982,490.87202 460.49372,490.43802 C 462.00641,489.50402 462.95721,487.32203 464.14231,486.02903 C 465.44101,484.61303 467.11911,483.28303 469.02221,483.31603 C 469.489,483.32403 470.9933,483.51903 471.0798,484.04203 C 471.1583,484.51703 470.5599,485.18903 471.1909,485.39603 C 472.284,485.75403 473.6851,485.62103 474.8924,485.62103 C 475.6203,485.62103 475.7793,486.75503 476.7207,486.06603 C 477.48259,485.50703 477.70859,485.25403 478.58709,485.52903 C 479.73759,485.89003 481.21019,486.19403 480.89469,487.61503 C 480.54059,489.21303 480.19359,490.83702 482.46629,490.70902 C 484.57599,490.59002 483.59949,492.39302 483.48469,493.57602 C 483.43789,494.06402 484.38099,495.39502 483.74479,495.67002 C 482.23499,496.32102 480.89109,496.45302 479.63019,495.95502 C 479.10829,495.74902 477.70059,496.48502 477.0187,496.52502 C 475.9963,496.58502 474.9323,496.60702 473.9261,496.57802 C 472.3885,496.53502 471.5043,495.17002 469.9214,495.98402 C 468.69281,496.61702 466.95611,497.68901 465.63001,497.19301 C 464.49711,496.76502 464.03071,495.82402 462.51901,495.91602 C 459.96602,496.07102 460.31042,494.25402 458.58912,493.32402"
       style="fill:#ffa500;stroke:#ffffff;stroke-width:1;stroke-miterlimit:4;stroke-dasharray:none;stroke-opacity:1" />
  </g>
</svg>
