<svg width="150" height="120" viewBox="0 0 150 120" fill="none" xmlns="http://www.w3.org/2000/svg">
<path d="M35.6484 44.8594C34.8281 42.0234 33.8203 37.0781 33.8203 37.0781H33.7031C33.7031 37.0781 32.6953 42.0234 31.875 44.8594L29.2734 53.6484H38.2031L35.6484 44.8594ZM144.375 12H78.75V87H144.375C147.492 87 150 84.4922 150 81.375V17.625C150 14.5078 147.492 12 144.375 12ZM138.75 40.125C138.75 41.6719 137.484 42.9375 135.938 42.9375H133.266C131.648 48.4688 128.18 54.0469 123.258 59.3203C125.227 60.8203 127.266 62.25 129.375 63.5391C130.664 64.3359 131.086 66 130.336 67.3359L128.484 70.5938C127.688 71.9766 125.93 72.4219 124.57 71.6016C121.617 69.7734 118.828 67.8281 116.273 65.7656C113.719 67.8047 110.953 69.7734 107.977 71.6016C106.617 72.4219 104.859 71.9766 104.062 70.5938L102.211 67.3359C101.461 66.0234 101.883 64.3359 103.195 63.5391C105.375 62.2031 107.414 60.7969 109.312 59.3203C107.461 57.3516 105.82 55.3359 104.391 53.2969C103.453 51.9609 103.875 50.1094 105.258 49.2891L106.781 48.375L108.492 47.3672C109.758 46.6172 111.398 46.9688 112.242 48.1641C113.414 49.8047 114.773 51.4453 116.32 53.0625C119.484 49.7344 121.898 46.2891 123.352 42.9375H96.5625C95.0156 42.9375 93.75 41.6719 93.75 40.125V36.375C93.75 34.8281 95.0156 33.5625 96.5625 33.5625H111.562V29.8125C111.562 28.2656 112.828 27 114.375 27H118.125C119.672 27 120.938 28.2656 120.938 29.8125V33.5625H135.938C137.484 33.5625 138.75 34.8281 138.75 36.375V40.125ZM0 17.625V81.375C0 84.4922 2.50781 87 5.625 87H71.25V12H5.625C2.50781 12 0 14.5078 0 17.625ZM13.8047 68.2734L27.2812 28.6406C27.6797 27.4922 28.7344 26.7422 29.9531 26.7422H37.5703C38.7656 26.7422 39.8438 27.5156 40.2422 28.6406L53.7188 68.2734C54.3281 70.1016 52.9922 72 51.0469 72H45.6797C45.0731 71.9996 44.483 71.8031 43.9973 71.4398C43.5115 71.0766 43.1562 70.5661 42.9844 69.9844L40.7812 62.5078H26.6719L24.5391 69.9609C24.1875 71.1562 23.0859 72 21.8438 72H16.4766C14.5547 72 13.1953 70.1016 13.8047 68.2734Z" fill="black"/>
</svg>
