<svg width="75" height="75" viewBox="0 0 75 75" fill="none" xmlns="http://www.w3.org/2000/svg">
<path d="M69.6429 29.4643H45.5357V5.35714C45.5357 2.399 43.1367 0 40.1786 0H34.8214C31.8633 0 29.4643 2.399 29.4643 5.35714V29.4643H5.35714C2.399 29.4643 0 31.8633 0 34.8214V40.1786C0 43.1367 2.399 45.5357 5.35714 45.5357H29.4643V69.6429C29.4643 72.601 31.8633 75 34.8214 75H40.1786C43.1367 75 45.5357 72.601 45.5357 69.6429V45.5357H69.6429C72.601 45.5357 75 43.1367 75 40.1786V34.8214C75 31.8633 72.601 29.4643 69.6429 29.4643Z" fill="url(#paint0_linear)"/>
<defs>
<linearGradient id="paint0_linear" x1="0" y1="0" x2="75" y2="75" gradientUnits="userSpaceOnUse">
<stop stop-color="#02C6D6"/>
<stop offset="1" stop-color="#037FD5"/>
</linearGradient>
</defs>
</svg>
